<svg xmlns="http://www.w3.org/2000/svg" width="178" height="28" fill="none"><path fill="#0A0A0A" d="M21 19.6V8.4A1.4 1.4 0 0 0 19.6 7h-.07a1.4 1.4 0 0 0-.99.41L7.41 18.54a1.4 1.4 0 0 0-.41.99V28H0v-8.47a8.4 8.4 0 0 1 2.46-5.94L13.59 2.46A8.4 8.4 0 0 1 19.53 0h.07A8.4 8.4 0 0 1 28 8.4v11.2a8.4 8.4 0 0 1-8.4 8.4H9.8v-7h9.8a1.4 1.4 0 0 0 1.4-1.4M0 0h11.9l-7 7H0z"/><text x="37" y="21.5" font-family="Arial, Helvetica, sans-serif" font-weight="700" font-size="19" letter-spacing="-0.3" fill="#0A0A0A">Automind</text></svg>
